# xmcd
#
# Track frame offsets:
#	150
#	24671
#	41185
#	69228
#	89797
#	133919
#	159731
#	188544
#	207777
#	234084
#
# Disc length: 3438 seconds
#
# Revision: 0
# Processed by: cddbd v1.5.2PL0 Copyright (c) Steve Scherf et al.
# Submitted via: dBpowerAMP V4.0
#
DISCID=860d6c0a
DTITLE=Jackson Browne - Time The Conqueror
DYEAR=1900
DGENRE=
TTITLE0=01 Time The Conqueror
TTITLE1=02 Off Of Wonderland
TTITLE2=03 The Drums Of War
TTITLE3=04 The Arms Of Night
TTITLE4=05 Where Were You
TTITLE5=06 Going Down To Cuba
TTITLE6=07 Giving That Heaven Away
TTITLE7=08 Live Nude Cabaret
TTITLE8=09 Just Say Yeah
TTITLE9=10 Far From The Arms Of Hunger
EXTD=
EXTT0=
EXTT1=
EXTT2=
EXTT3=
EXTT4=
EXTT5=
EXTT6=
EXTT7=
EXTT8=
EXTT9=
PLAYORDER=
